<?xml version="1.0" encoding="UTF-8" ?>
<!DOCTYPE svg PUBLIC "-//W3C//DTD SVG 1.1//EN" "http://www.w3.org/Graphics/SVG/1.1/DTD/svg11.dtd">
<svg width="35pt" height="35pt" viewBox="0 0 47 50" version="1.1" xmlns="http://www.w3.org/2000/svg">
<g id="#ecbd41ff">
<path fill="#ecbd41" opacity="1.00" d=" M 18.33 21.91 C 17.20 19.32 16.14 16.68 15.65 13.89 C 17.93 15.47 20.10 17.21 22.22 19.02 C 23.08 16.08 24.27 13.25 24.93 10.25 C 25.46 13.19 26.60 15.95 27.48 18.79 C 29.38 17.45 31.21 15.89 33.51 15.29 C 33.05 17.57 32.35 19.79 31.47 21.93 C 33.67 21.88 35.87 21.89 38.07 21.98 C 37.63 24.55 34.92 25.48 33.02 26.76 C 35.17 28.29 37.31 29.85 39.33 31.56 C 36.76 31.96 34.14 32.34 31.56 31.78 C 32.76 34.53 33.86 37.33 34.65 40.23 C 32.11 38.58 29.74 36.68 27.52 34.62 C 26.73 37.15 25.77 39.62 24.72 42.05 C 24.13 39.55 23.21 37.14 22.35 34.72 C 20.32 36.12 18.26 37.49 16.04 38.58 C 17.01 36.32 17.66 33.95 18.05 31.53 C 15.59 31.64 13.13 31.77 10.66 31.71 C 12.13 29.39 14.84 28.39 17.02 26.88 C 14.56 25.32 11.81 24.11 9.85 21.89 C 12.67 21.76 15.50 21.86 18.33 21.91 Z" />
</g>
</svg>
